Coordinates
version=1
nRows=53
nColumns=11
inDegrees=no

Units are S.I. units (second, meters, Newtons, ...)
If the header above contains a line with 'inDegrees', this indicates whether rotational values are in degrees (yes) or radians (no).

endheader
time	pelvis_tilt	pelvis_tx	pelvis_ty	hip_flexion_r	knee_angle_r	ankle_angle_r	hip_flexion_l	knee_angle_l	ankle_angle_l	lumbar_extension
105.3	0.0826001	0.177379	1.01456	0.242021	-1.10827	0.0662781	-0.124488	0.0435124	0.0421072	0
105.31	0.081797	0.176687	1.01558	0.258663	-1.09702	0.0676061	-0.133132	0.0462223	0.0458896	0
105.32	0.0999965	0.17963	1.01772	0.246833	-1.08041	0.0652966	-0.165128	0.0450139	0.0520874	0
105.33	0.0821086	0.176204	1.01713	0.28226	-1.0579	0.0641605	-0.153645	0.053414	0.0545157	0
105.34	0.080454	0.175223	1.01757	0.294082	-1.03138	0.0628343	-0.156499	0.047354	0.0632072	0
105.35	0.0992163	0.178597	1.01925	0.276537	-0.999577	0.061439	-0.183251	0.0363925	0.0743791	0
105.36	0.0791623	0.174391	1.01813	0.307712	-0.960104	0.0654251	-0.168344	0.0432929	0.0775609	0
105.37	0.0778219	0.17349	1.01842	0.313147	-0.918675	0.0630244	-0.174568	0.0424987	0.0839179	0
105.38	0.0779174	0.173024	1.01861	0.313282	-0.87085	0.0645507	-0.184786	0.0453764	0.0894236	0
105.39	0.101421	0.176672	1.02016	0.28152	-0.822724	0.0624715	-0.220342	0.0363032	0.103827	0
105.4	0.103203	0.176725	1.02023	0.275158	-0.767253	0.0640204	-0.231765	0.0375952	0.111178	0
105.41	0.102519	0.176163	1.01994	0.269934	-0.70772	0.0687607	-0.24066	0.0407271	0.115615	0
105.42	0.0756971	0.171281	1.01726	0.294931	-0.638522	0.0771086	-0.218562	0.051143	0.119573	0
105.43	0.072719	0.170105	1.01631	0.288856	-0.571625	0.0775955	-0.219942	0.0450079	0.133134	0
105.44	0.0720838	0.169856	1.01562	0.278327	-0.503818	0.0722068	-0.225623	0.0400351	0.145126	0
105.45	0.0720034	0.170249	1.01487	0.266901	-0.436721	0.0674835	-0.23488	0.0404232	0.152037	0
105.46	0.0743511	0.171242	1.01394	0.250502	-0.368249	0.0627319	-0.24897	0.04392	0.159358	0
105.47	0.0748173	0.171796	1.01283	0.234623	-0.299865	0.0606814	-0.261127	0.0470906	0.165873	0
105.48	0.0740906	0.171859	1.01159	0.22074	-0.234968	0.0593311	-0.269902	0.0464784	0.174128	0
105.49	0.074608	0.172141	1.01025	0.20807	-0.178773	0.0591676	-0.278326	0.0427395	0.185809	0
105.5	0.0731728	0.172409	1.00874	0.19965	-0.129395	0.0593399	-0.28182	0.035755	0.199561	0
105.51	0.0995406	0.177006	1.00981	0.157596	-0.0935413	0.0636833	-0.319408	0.0213598	0.216123	0
105.52	0.103158	0.178644	1.0088	0.140661	-0.053446	0.0682527	-0.334998	0.022545	0.228016	0
105.53	0.10447	0.179844	1.00755	0.128519	-0.0213214	0.0725948	-0.34676	0.0223582	0.237499	0
105.54	0.105324	0.180796	1.00641	0.117978	0.00333368	0.0763287	-0.353842	0.015111	0.247782	0
105.55	0.106684	0.181634	1.00545	0.107503	0.0207832	0.0767677	-0.357983	0.0017049	0.261168	0
105.56	0.108334	0.182414	1.00437	0.0982143	0.0295196	0.0746422	-0.361401	-0.013041	0.275096	0
105.57	0.108833	0.18304	1.00316	0.0927348	0.0279105	0.0747727	-0.362471	-0.0293505	0.289586	0
105.58	0.108226	0.183526	1.00188	0.0900634	0.0193421	0.076596	-0.360974	-0.0484045	0.304712	0
105.59	0.107136	0.184037	1.00082	0.0865637	0.0122531	0.0687286	-0.357346	-0.0709939	0.319447	0
105.6	0.107148	0.184847	1.00007	0.0803592	0.00955252	0.0552647	-0.352403	-0.0984118	0.333712	0
105.61	0.107001	0.186091	0.999171	0.0732212	0.010393	0.0384017	-0.35022	-0.12099	0.344888	0
105.62	0.107344	0.187243	0.998201	0.0643755	0.0148879	0.0154321	-0.347134	-0.146533	0.355842	0
105.63	0.10841	0.188288	0.99729	0.0543645	0.0201484	-0.0145589	-0.344916	-0.172276	0.364702	0
105.64	0.110321	0.189806	0.996598	0.0454375	0.0212652	-0.0414754	-0.345162	-0.195875	0.369452	0
105.65	0.111754	0.191199	0.995961	0.0397491	0.0177667	-0.0547198	-0.342021	-0.22388	0.374627	0
105.66	0.113196	0.192661	0.995434	0.0335667	0.0140759	-0.0603312	-0.335067	-0.258849	0.378696	0
105.67	0.115384	0.194176	0.995233	0.0264582	0.00906187	-0.0661959	-0.326673	-0.297995	0.379721	0
105.68	0.117445	0.19528	0.9953	0.021189	-0.00119799	-0.0627722	-0.313405	-0.344422	0.378529	0
105.69	0.120841	0.197136	0.9958	0.0119525	-0.00915914	-0.0500084	-0.303072	-0.387906	0.370755	0
105.7	0.123971	0.198679	0.996345	0.0023926	-0.0156251	-0.0348194	-0.289691	-0.435475	0.357548	0
105.71	0.126667	0.199797	0.996976	-0.00811763	-0.019735	-0.0177684	-0.270582	-0.490569	0.33751	0
105.72	0.128938	0.200947	0.997927	-0.0204569	-0.0199767	-0.00132502	-0.248465	-0.547958	0.308796	0
105.73	0.130539	0.201841	0.998996	-0.0321328	-0.0203271	0.00768623	-0.221758	-0.60904	0.274913	0
105.74	0.110962	0.199452	0.998879	-0.0201452	-0.0133957	0.01024	-0.168974	-0.664632	0.238645	0
105.75	0.10903	0.19927	0.999564	-0.0248127	-0.016289	0.0193541	-0.13251	-0.729838	0.201433	0
105.76	0.106197	0.198852	1	-0.0271704	-0.0197244	0.0324552	-0.0928159	-0.794482	0.168135	0
105.77	0.104961	0.198527	1.00078	-0.031989	-0.0230812	0.0402055	-0.0568295	-0.853415	0.139489	0
105.78	0.123237	0.20095	1.0027	-0.0601181	-0.0322829	0.0471503	-0.0489631	-0.907195	0.123402	0
105.79	0.104231	0.197329	1.0025	-0.0481666	-0.0244132	0.0508857	0.00537834	-0.954797	0.123657	0
105.8	0.100467	0.195672	1.00334	-0.0497316	-0.0274628	0.054858	0.0415082	-1.00165	0.126787	0
105.81	0.0974945	0.194482	1.00428	-0.0518542	-0.0291428	0.0612211	0.0751348	-1.04115	0.130091	0
105.82	0.0944736	0.193404	1.00524	-0.0552817	-0.0301606	0.0644451	0.107001	-1.07474	0.13301	0
